<?xml version="1.0" encoding="UTF-8" standalone="no"?>
<!DOCTYPE svg PUBLIC "-//W3C//DTD SVG 1.1//EN" "http://www.w3.org/Graphics/SVG/1.1/DTD/svg11.dtd">
<svg width="100%" height="100%" viewBox="0 0 10917 2355" version="1.1" xmlns="http://www.w3.org/2000/svg" xmlns:xlink="http://www.w3.org/1999/xlink" xml:space="preserve" xmlns:serif="http://www.serif.com/" style="fill-rule:evenodd;clip-rule:evenodd;stroke-linejoin:round;stroke-miterlimit:2;">
    <g id="Layer1">
        <g transform="matrix(23.942,0,0,23.1495,-5808.11,-5639.1)">
            <path d="M281.51,338.78C261.3,338.78 244.86,322.34 244.86,302.13C244.86,290.77 250,280.24 258.96,273.24C260.36,272.14 262.39,272.39 263.49,273.8C264.59,275.21 264.34,277.24 262.93,278.33C255.55,284.1 251.31,292.77 251.31,302.13C251.31,318.77 264.85,332.32 281.5,332.32C298.15,332.32 311.69,318.78 311.69,302.13C311.69,299.91 311.45,297.69 310.97,295.54C310.58,293.8 311.68,292.07 313.42,291.69C315.16,291.3 316.89,292.4 317.27,294.14C317.85,296.75 318.14,299.44 318.14,302.13C318.14,322.34 301.7,338.78 281.49,338.78L281.51,338.78Z" style="fill:white;fill-rule:nonzero;"/>
        </g>
        <g transform="matrix(23.942,0,0,23.1495,-5808.11,-5639.1)">
            <path d="M279.17,290.65C278.34,290.65 277.52,290.33 276.89,289.7C275.63,288.44 275.63,286.39 276.89,285.13L290.02,272C291.28,270.74 293.33,270.74 294.59,272C295.85,273.26 295.85,275.31 294.59,276.57L281.46,289.7C280.83,290.33 280,290.65 279.18,290.65L279.17,290.65Z" style="fill:rgb(44,0,133);fill-rule:nonzero;"/>
        </g>
        <g transform="matrix(23.942,0,0,23.1495,-5808.11,-5639.1)">
            <path d="M260.1,309.71C259.27,309.71 258.45,309.39 257.82,308.76C256.56,307.5 256.56,305.45 257.82,304.19L268.61,293.4C269.87,292.14 271.92,292.14 273.18,293.4C274.44,294.66 274.44,296.71 273.18,297.97L262.39,308.76C261.76,309.39 260.93,309.71 260.11,309.71L260.1,309.71Z" style="fill:rgb(44,0,133);fill-rule:nonzero;"/>
        </g>
        <g transform="matrix(23.942,0,0,23.1495,-5808.11,-5639.1)">
            <path d="M306.7,287.95C303.1,287.95 299.97,286.51 298.22,285.18C296.8,284.1 296.52,282.08 297.6,280.66C298.67,279.24 300.69,278.96 302.11,280.02C302.97,280.65 307.46,283.52 312.05,279.08C313.33,277.84 315.38,277.87 316.62,279.15C317.86,280.43 317.83,282.48 316.55,283.72C313.29,286.87 309.83,287.95 306.72,287.95L306.7,287.95Z" style="fill:rgb(44,0,133);fill-rule:nonzero;"/>
        </g>
        <g transform="matrix(23.942,0,0,23.1495,-5808.11,-5639.1)">
            <path d="M291.95,277.1C291.12,277.1 290.3,276.78 289.67,276.15L281.82,268.3C280.92,267.4 280,266.98 278.93,266.98L278.88,266.98C276.15,267.02 273.1,269.62 272.15,270.62C270.92,271.91 268.88,271.97 267.59,270.75C266.29,269.53 266.23,267.5 267.44,266.2C267.97,265.63 272.83,260.62 278.76,260.52C281.64,260.49 284.24,261.58 286.39,263.73L294.24,271.58C295.5,272.84 295.5,274.89 294.24,276.15C293.61,276.78 292.78,277.1 291.96,277.1L291.95,277.1Z" style="fill:rgb(44,0,133);fill-rule:nonzero;"/>
        </g>
        <g transform="matrix(23.942,0,0,23.1495,-5808.11,-5639.1)">
            <circle cx="303.88" cy="263.4" r="7.18" style="fill:rgb(44,0,133);"/>
        </g>
        <g transform="matrix(23.942,0,0,23.1495,-5808.11,-5639.1)">
            <path d="M278.91,320.75C278.07,320.75 277.24,320.43 276.61,319.79C275.36,318.52 275.38,316.47 276.65,315.22C276.66,315.21 278.41,313.49 285.32,306.58C286.55,305.35 287.14,304.16 287.14,302.93C287.14,300.77 285.34,298.97 285.33,298.95L276.56,289.93C275.32,288.65 275.34,286.61 276.62,285.36C277.9,284.12 279.94,284.15 281.19,285.42L289.87,294.35C290.44,294.91 293.56,298.18 293.61,302.82C293.63,304.9 293.01,308.04 289.9,311.15C282.94,318.11 281.2,319.83 281.2,319.83C280.57,320.45 279.75,320.76 278.93,320.76L278.91,320.75Z" style="fill:white;fill-rule:nonzero;"/>
        </g>
        <g transform="matrix(17.4072,0,0,17.2134,-3806.34,-3443.56)">
            <path d="M372.34,294.67L363.74,294.67L363.74,272.8L354.01,288.76L353.04,288.76L343.31,272.8L343.31,294.67L334.71,294.67L334.71,257.05L343.31,257.05L353.52,273.76L363.73,257.05L372.33,257.05L372.33,294.67L372.34,294.67Z" style="fill:rgb(44,0,133);fill-rule:nonzero;"/>
        </g>
        <g transform="matrix(17.4072,0,0,17.2134,-3806.34,-3443.56)">
            <path d="M405.06,267.78L405.06,294.66L397,294.66L397,292.13C395.23,294.17 392.59,295.41 388.99,295.41C381.95,295.41 376.15,289.23 376.15,281.22C376.15,273.21 381.95,267.03 388.99,267.03C392.59,267.03 395.22,268.27 397,270.31L397,267.78L405.06,267.78ZM397,281.23C397,277.2 394.31,274.67 390.6,274.67C386.89,274.67 384.21,277.2 384.21,281.23C384.21,285.26 386.9,287.79 390.6,287.79C394.3,287.79 397,285.26 397,281.23Z" style="fill:rgb(44,0,133);fill-rule:nonzero;"/>
        </g>
        <g transform="matrix(17.4072,0,0,17.2134,-3806.34,-3443.56)">
            <path d="M425.87,267.26L425.87,276.4C422.54,275.86 417.81,277.21 417.81,282.53L417.81,294.67L409.75,294.67L409.75,267.8L417.81,267.8L417.81,272.58C418.88,268.98 422.48,267.26 425.87,267.26Z" style="fill:rgb(44,0,133);fill-rule:nonzero;"/>
        </g>
        <g transform="matrix(17.4072,0,0,17.2134,-3806.34,-3443.56)">
            <path d="M455.86,267.78L455.86,294.66L447.8,294.66L447.8,292.13C446.03,294.17 443.39,295.41 439.79,295.41C432.75,295.41 426.95,289.23 426.95,281.22C426.95,273.21 432.75,267.03 439.79,267.03C443.39,267.03 446.02,268.27 447.8,270.31L447.8,267.78L455.86,267.78ZM447.79,281.23C447.79,277.2 445.1,274.67 441.39,274.67C437.68,274.67 435,277.2 435,281.23C435,285.26 437.69,287.79 441.39,287.79C445.09,287.79 447.79,285.26 447.79,281.23Z" style="fill:rgb(44,0,133);fill-rule:nonzero;"/>
        </g>
        <g transform="matrix(17.4072,0,0,17.2134,-3806.34,-3443.56)">
            <path d="M470.85,275.52L470.85,285.04C470.85,287.35 472.84,287.57 476.39,287.35L476.39,294.66C465.86,295.73 462.79,292.56 462.79,285.04L462.79,275.53L458.49,275.53L458.49,267.79L462.79,267.79L462.79,262.68L470.85,260.26L470.85,267.78L476.39,267.78L476.39,275.52L470.85,275.52Z" style="fill:rgb(44,0,133);fill-rule:nonzero;"/>
        </g>
        <g transform="matrix(17.4072,0,0,17.2134,-3806.34,-3443.56)">
            <path d="M506.24,278.17L506.24,294.67L498.18,294.67L498.18,279.35C498.18,276.02 496.09,274.46 493.51,274.46C490.55,274.46 488.51,276.18 488.51,279.99L488.51,294.66L480.45,294.66L480.45,257.04L488.51,257.04L488.51,270.31C489.96,268.32 492.65,267.03 496.2,267.03C501.63,267.03 506.25,270.9 506.25,278.16L506.24,278.17Z" style="fill:rgb(44,0,133);fill-rule:nonzero;"/>
        </g>
        <g transform="matrix(17.4072,0,0,17.2134,-3806.34,-3443.56)">
            <path d="M509.16,281.23C509.16,273.22 515.5,267.04 523.4,267.04C531.3,267.04 537.64,273.22 537.64,281.23C537.64,289.24 531.3,295.42 523.4,295.42C515.5,295.42 509.16,289.24 509.16,281.23ZM529.58,281.23C529.58,277.41 526.89,274.89 523.4,274.89C519.91,274.89 517.22,277.42 517.22,281.23C517.22,285.04 519.91,287.57 523.4,287.57C526.89,287.57 529.58,285.04 529.58,281.23Z" style="fill:rgb(44,0,133);fill-rule:nonzero;"/>
        </g>
        <g transform="matrix(17.4072,0,0,17.2134,-3806.34,-3443.56)">
            <path d="M566.64,278.17L566.64,294.67L558.58,294.67L558.58,279.35C558.58,276.02 556.49,274.46 553.91,274.46C550.95,274.46 548.91,276.18 548.91,279.99L548.91,294.66L540.85,294.66L540.85,267.79L548.91,267.79L548.91,270.32C550.36,268.33 553.05,267.04 556.6,267.04C562.03,267.04 566.65,270.91 566.65,278.17L566.64,278.17Z" style="fill:rgb(44,0,133);fill-rule:nonzero;"/>
        </g>
        <g transform="matrix(17.4072,0,0,17.2134,442.018,-4192.54)">
            <path d="M362.13,313.4C362.13,320.55 356.38,326.3 348.96,326.3L343.32,326.3L343.32,338.12L334.72,338.12L334.72,300.5L348.96,300.5C356.38,300.5 362.13,306.25 362.13,313.4ZM353.53,313.4C353.53,310.66 351.59,308.56 348.96,308.56L343.32,308.56L343.32,318.23L348.96,318.23C351.59,318.23 353.53,316.14 353.53,313.4Z" style="fill:rgb(44,0,133);fill-rule:nonzero;"/>
        </g>
        <g transform="matrix(17.4072,0,0,17.2134,442.018,-4192.54)">
            <path d="M390.08,321.62L390.08,338.12L382.02,338.12L382.02,322.8C382.02,319.47 379.93,317.91 377.35,317.91C374.39,317.91 372.35,319.63 372.35,323.44L372.35,338.11L364.29,338.11L364.29,300.49L372.35,300.49L372.35,313.76C373.8,311.77 376.49,310.48 380.04,310.48C385.47,310.48 390.09,314.35 390.09,321.61L390.08,321.62Z" style="fill:rgb(44,0,133);fill-rule:nonzero;"/>
        </g>
        <g transform="matrix(17.4072,0,0,17.2134,442.018,-4192.54)">
            <path d="M393.01,324.69C393.01,316.68 399.35,310.5 407.25,310.5C415.15,310.5 421.49,316.68 421.49,324.69C421.49,332.7 415.15,338.88 407.25,338.88C399.35,338.88 393.01,332.7 393.01,324.69ZM413.43,324.69C413.43,320.87 410.74,318.35 407.25,318.35C403.76,318.35 401.07,320.88 401.07,324.69C401.07,328.5 403.76,331.03 407.25,331.03C410.74,331.03 413.43,328.5 413.43,324.69Z" style="fill:rgb(44,0,133);fill-rule:nonzero;"/>
        </g>
        <g transform="matrix(17.4072,0,0,17.2134,442.018,-4192.54)">
            <path d="M434.83,318.98L434.83,328.5C434.83,330.81 436.82,331.03 440.37,330.81L440.37,338.12C429.84,339.19 426.77,336.02 426.77,328.5L426.77,318.99L422.47,318.99L422.47,311.25L426.77,311.25L426.77,306.14L434.83,303.72L434.83,311.24L440.37,311.24L440.37,318.98L434.83,318.98Z" style="fill:rgb(44,0,133);fill-rule:nonzero;"/>
        </g>
        <g transform="matrix(17.4072,0,0,17.2134,442.018,-4192.54)">
            <path d="M442.37,324.69C442.37,316.68 448.71,310.5 456.61,310.5C464.51,310.5 470.85,316.68 470.85,324.69C470.85,332.7 464.51,338.88 456.61,338.88C448.71,338.88 442.37,332.7 442.37,324.69ZM462.79,324.69C462.79,320.87 460.1,318.35 456.61,318.35C453.12,318.35 450.43,320.88 450.43,324.69C450.43,328.5 453.12,331.03 456.61,331.03C460.1,331.03 462.79,328.5 462.79,324.69Z" style="fill:rgb(44,0,133);fill-rule:nonzero;"/>
        </g>
        <g transform="matrix(17.4072,0,0,17.2134,442.018,-4192.54)">
            <path d="M494.51,330.06C494.51,336.24 489.13,338.87 483.33,338.87C477.96,338.87 473.87,336.83 471.78,332.47L478.77,328.49C479.47,330.53 480.97,331.66 483.34,331.66C485.28,331.66 486.24,331.07 486.24,329.99C486.24,327.03 473.02,328.59 473.02,319.29C473.02,313.43 477.97,310.48 483.55,310.48C487.9,310.48 491.77,312.41 494.03,316.23L487.15,319.94C486.4,318.54 485.32,317.58 483.55,317.58C482.15,317.58 481.29,318.12 481.29,319.09C481.29,322.15 494.51,320.11 494.51,330.05L494.51,330.06Z" style="fill:rgb(44,0,133);fill-rule:nonzero;"/>
        </g>
        <g transform="matrix(17.4072,0,0,17.2134,442.018,-4199.69)">
            <path d="M526.38,330.19L526.38,338.47L504.34,338.47L504.34,300.85L512.94,300.85L512.94,330.19L526.38,330.19Z" style="fill:white;fill-rule:nonzero;"/>
        </g>
        <g transform="matrix(17.4072,0,0,17.2134,442.018,-4199.69)">
            <path d="M528.24,304.4C528.24,301.77 530.44,299.56 533.08,299.56C535.72,299.56 537.92,301.76 537.92,304.4C537.92,307.04 535.72,309.24 533.08,309.24C530.44,309.24 528.24,307.04 528.24,304.4ZM529.05,310.87L537.11,310.87L537.11,338.47L529.05,338.47L529.05,310.87Z" style="fill:white;fill-rule:nonzero;"/>
        </g>
        <g transform="matrix(17.4072,0,0,17.2134,442.018,-4199.69)">
            <path d="M569.79,310.87L559.51,338.47L550.06,338.47L539.78,310.87L549,310.87L554.78,328.37L560.56,310.87L569.79,310.87Z" style="fill:white;fill-rule:nonzero;"/>
        </g>
        <g transform="matrix(17.4072,0,0,17.2134,442.018,-4199.69)">
            <path d="M584.08,331.86C586.28,331.86 588.16,331 589.24,329.82L595.69,333.53C593.06,337.18 589.08,339.06 583.97,339.06C574.78,339.06 569.08,332.88 569.08,324.87C569.08,316.86 574.88,310.68 583.37,310.68C591.22,310.68 597.02,316.75 597.02,324.87C597.02,326 596.91,327.07 596.7,328.09L577.62,328.09C578.64,330.88 581.11,331.85 584.07,331.85L584.08,331.86ZM589.02,322.08C588.16,318.96 585.74,317.83 583.32,317.83C580.26,317.83 578.21,319.34 577.46,322.08L589.02,322.08Z" style="fill:white;fill-rule:nonzero;"/>
        </g>
    </g>
</svg>
